<svg width="72" height="34" viewBox="0 0 72 34" fill="none" xmlns="http://www.w3.org/2000/svg">
<g filter="url(#filter0_d_91_7124)">
<path fill-rule="evenodd" clip-rule="evenodd" d="M3.13564 27.3562L3 27.4647V28.8248L3.13564 28.9221H13.4223L13.5579 28.8248V27.4647L13.4223 27.3562L12.1676 27.2839C11.4781 27.2718 11.1333 27.2115 11.1333 26.7414C11.1333 26.6329 11.1616 26.4883 11.2181 26.3074C11.2746 26.1146 11.8963 25.0297 13.0832 23.0527L17.7289 15.3318L23.748 5.33256H24.2058V28.9221H27.3459V3.07233C27.3459 3.07233 20.7583 3.12055 19.6618 3.07233C18.5654 3.02411 17.9154 3 17.712 3L17.5763 3.12657V4.03067L17.712 4.15724C19.8144 4.26573 21.0861 4.41038 21.5269 4.5912C21.979 4.75997 22.2051 5.03722 22.2051 5.42297C22.2051 5.62789 22.1316 5.86296 21.9847 6.12816C21.9256 6.23214 21.1269 7.46463 19.9545 9.26621C19.8298 9.33916 18.7562 9.40337 15.5417 9.3251C14.4453 9.27689 13.7953 9.25278 13.5919 9.25278L13.4562 9.37935V10.2834L13.5919 10.41C15.6943 10.5185 16.966 10.6632 17.4068 10.844C17.8589 11.0127 18.085 11.29 18.085 11.6757C18.085 11.8014 18.0574 12.0377 18.0022 12.2629C17.3798 13.2174 16.7217 14.2262 16.0567 15.2449L11.7907 15.1907C10.6943 15.1425 10.0443 15.1184 9.84084 15.1184L9.7052 15.245V16.1491L9.84084 16.2757C11.9433 16.3841 13.2149 16.5288 13.6558 16.7096C14.1079 16.8784 14.334 17.1556 14.334 17.5414C14.334 17.6343 14.3189 17.7878 14.2886 17.9526C13.7315 18.8056 13.188 19.6374 12.6759 20.4208C12.4779 20.6167 12.3118 20.7324 12.154 20.8252C11.9268 20.9589 10.3046 20.9559 9.02194 20.9535H9.02176C8.45426 20.9525 7.95325 20.9515 7.66895 20.9626C7.17513 20.9413 6.41638 20.9116 6.21291 20.9116L6.07727 21.0382V21.9423L6.21291 22.0688C8.31536 22.1773 9.587 22.322 10.0278 22.5028C10.48 22.6716 10.706 22.9488 10.706 23.3346C10.706 23.364 10.7045 23.3996 10.7015 23.4396C10.0395 24.4509 9.54822 25.2004 9.31913 25.548C8.70874 26.4521 8.23964 26.8198 7.91184 27.0126C7.6836 27.1469 6.41899 27.3816 5.048 27.4399C4.78626 27.4399 4.36593 27.4151 3.97995 27.3924L3.97979 27.3924C3.61079 27.3707 3.27322 27.3508 3.13564 27.3562ZM34.7941 26.4004C34.808 26.2227 34.8149 26.0857 34.8149 25.9894C34.8149 25.3821 34.6934 24.8488 34.4503 24.3896C34.2142 23.923 33.8808 23.5638 33.4503 23.312C33.0266 23.0528 32.5439 22.9232 32.0022 22.9232C31.4536 22.9232 30.9605 23.0528 30.523 23.312C30.0855 23.5712 29.7417 23.9341 29.4917 24.4007C29.2486 24.8599 29.1271 25.3784 29.1271 25.9561C29.1271 26.5412 29.2521 27.067 29.5021 27.5336C29.7591 27.9928 30.1202 28.352 30.5855 28.6112C31.0508 28.8704 31.589 29.0001 32.2002 29.0001C32.6794 29.0001 33.11 28.9186 33.4919 28.7556C33.8739 28.5927 34.1899 28.352 34.4399 28.0335L33.7419 27.1781C33.3461 27.6077 32.8426 27.8225 32.2314 27.8225C31.7522 27.8225 31.3494 27.6965 31.023 27.4447C30.7036 27.1855 30.5056 26.8374 30.4292 26.4004H34.7941ZM30.9397 24.4341C31.2314 24.1674 31.5856 24.0341 32.0022 24.0341C32.4259 24.0341 32.7801 24.1674 33.0648 24.4341C33.3496 24.7007 33.5197 25.0488 33.5753 25.4784H30.4188C30.4813 25.0414 30.6549 24.6933 30.9397 24.4341ZM37.2184 28.6112C37.6767 28.8704 38.1941 29.0001 38.7706 29.0001C39.3123 29.0001 39.788 28.8816 40.1977 28.6446C40.6144 28.4001 40.9304 28.0558 41.1457 27.6114L40.1456 26.9892C39.9859 27.2633 39.7845 27.4707 39.5414 27.6114C39.3053 27.7447 39.0449 27.8113 38.7601 27.8113C38.2671 27.8113 37.8608 27.6447 37.5413 27.3114C37.2288 26.9707 37.0725 26.5189 37.0725 25.9561C37.0725 25.3932 37.2323 24.9451 37.5517 24.6118C37.8712 24.2711 38.274 24.1008 38.7601 24.1008C39.0449 24.1008 39.3053 24.1711 39.5414 24.3119C39.7845 24.4452 39.9859 24.6488 40.1456 24.9229L41.1457 24.3008C40.9374 23.8564 40.6248 23.5157 40.2081 23.2787C39.7984 23.0417 39.3192 22.9232 38.7706 22.9232C38.1872 22.9232 37.6663 23.0528 37.208 23.312C36.7565 23.5712 36.4024 23.9304 36.1454 24.3896C35.8884 24.8488 35.76 25.371 35.76 25.9561C35.76 26.5412 35.8884 27.067 36.1454 27.5336C36.4024 27.9928 36.76 28.352 37.2184 28.6112ZM47.4194 25.9894C47.4194 26.0857 47.4125 26.2227 47.3986 26.4004H43.0338C43.1102 26.8374 43.3081 27.1855 43.6275 27.4447C43.954 27.6965 44.3568 27.8225 44.8359 27.8225C45.4471 27.8225 45.9506 27.6077 46.3465 27.1781L47.0444 28.0335C46.7944 28.352 46.4784 28.5927 46.0964 28.7556C45.7145 28.9186 45.2839 29.0001 44.8047 29.0001C44.1936 29.0001 43.6553 28.8704 43.19 28.6112C42.7247 28.352 42.3636 27.9928 42.1066 27.5336C41.8566 27.067 41.7316 26.5412 41.7316 25.9561C41.7316 25.3784 41.8531 24.8599 42.0962 24.4007C42.3462 23.9341 42.69 23.5712 43.1275 23.312C43.565 23.0528 44.0581 22.9232 44.6068 22.9232C45.1485 22.9232 45.6311 23.0528 46.0548 23.312C46.4854 23.5638 46.8187 23.923 47.0548 24.3896C47.2979 24.8488 47.4194 25.3821 47.4194 25.9894ZM44.6068 24.0341C44.1901 24.0341 43.8359 24.1674 43.5442 24.4341C43.2595 24.6933 43.0858 25.0414 43.0233 25.4784H46.1798C46.1242 25.0488 45.9541 24.7007 45.6693 24.4341C45.3846 24.1674 45.0304 24.0341 44.6068 24.0341ZM50.1458 22.9898H48.8437V28.9223H50.1458V26.5782H52.9481V28.9223H54.2503V22.9898H52.9481V25.4006H50.1458V22.9898ZM58.308 26.5449H57.2976V28.9223H55.9954V22.9898H57.2976V25.3895H58.3393L59.9852 22.9898H61.3811L59.3602 25.845L61.5166 28.9223H59.9852L58.308 26.5449ZM66.2814 23.5564C65.8508 23.1343 65.2258 22.9232 64.4063 22.9232C63.9479 22.9232 63.5139 22.9861 63.1041 23.112C62.6944 23.2379 62.3437 23.4194 62.052 23.6564L62.5624 24.6674C62.7708 24.4822 63.0243 24.3378 63.3229 24.2341C63.6285 24.1304 63.9375 24.0786 64.25 24.0786C64.7084 24.0786 65.0522 24.1897 65.2814 24.4118C65.5175 24.634 65.6355 24.9525 65.6355 25.3673V25.4561H64.198C63.3993 25.4561 62.8125 25.6191 62.4374 25.945C62.0694 26.2634 61.8853 26.6893 61.8853 27.2225C61.8853 27.5632 61.9687 27.8706 62.1353 28.1446C62.309 28.4113 62.552 28.6223 62.8645 28.7779C63.1771 28.926 63.5417 29.0001 63.9584 29.0001C64.3751 29.0001 64.7292 28.9334 65.0209 28.8001C65.3196 28.6594 65.5487 28.4594 65.7085 28.2002V28.9223H66.9377V25.445C66.9377 24.6007 66.7189 23.9712 66.2814 23.5564ZM65.0938 27.7558C64.8438 27.9113 64.5556 27.9891 64.2292 27.9891C63.8959 27.9891 63.6354 27.915 63.4479 27.7669C63.2604 27.6188 63.1666 27.4188 63.1666 27.167C63.1666 26.6411 63.5417 26.3782 64.2917 26.3782H65.6355V27.067C65.5314 27.3633 65.3508 27.5929 65.0938 27.7558Z" fill="#202020"/>
<path fill-rule="evenodd" clip-rule="evenodd" d="M66.5655 3H45.7309L45.2969 3.46289V18.2755L45.7309 18.7384H66.5655L66.9996 18.2755V3.46289L66.5655 3ZM63.3332 15.8469V14.6095H58.6952L61.4599 11.6795C62.0369 11.0727 62.4288 10.5322 62.6355 10.0581C62.8422 9.58401 62.9456 9.08147 62.9456 8.55047C62.9456 7.69709 62.6657 7.02387 62.1059 6.5308C61.546 6.02826 60.7924 5.77698 59.845 5.77698C59.1388 5.77698 58.4971 5.90973 57.9201 6.17523C57.3517 6.44073 56.8909 6.81052 56.5378 7.28462L57.4163 8.12378C57.9589 7.40315 58.7297 7.04283 59.7288 7.04283C60.3489 7.04283 60.8226 7.1898 61.1498 7.48375C61.4857 7.76821 61.6537 8.17119 61.6537 8.6927C61.6537 9.04354 61.5762 9.39437 61.4211 9.74521C61.2661 10.0866 60.9647 10.4943 60.5168 10.9684L56.8349 14.8797V15.8469H63.3332ZM54.4018 10.6697C53.7989 10.1292 52.8515 9.85899 51.5596 9.85899H50.5519L50.7974 7.12817H54.8152V5.89077H49.7122L49.2342 11.0964H51.2883C52.2874 11.0964 52.9936 11.2528 53.407 11.5658C53.8204 11.8692 54.0271 12.3196 54.0271 12.9169C54.0271 13.4669 53.8377 13.9031 53.4587 14.2255C53.0884 14.5384 52.563 14.6948 51.8826 14.6948C51.3486 14.6948 50.8404 14.6 50.3581 14.4104C49.8758 14.2112 49.4796 13.9505 49.1696 13.6281L48.5753 14.7517C48.9629 15.131 49.4538 15.4297 50.0481 15.6478C50.6424 15.8564 51.2582 15.9607 51.8955 15.9607C52.6448 15.9607 53.2735 15.8279 53.7817 15.5624C54.2984 15.2874 54.6817 14.9176 54.9315 14.453C55.1898 13.9789 55.319 13.4479 55.319 12.86C55.319 11.9308 55.0133 11.2007 54.4018 10.6697Z" fill="#F4F4F4"/>
</g>
<defs>
<filter id="filter0_d_91_7124" x="0" y="0" width="72" height="34" filterUnits="userSpaceOnUse" color-interpolation-filters="sRGB">
<feFlood flood-opacity="0" result="BackgroundImageFix"/>
<feColorMatrix in="SourceAlpha" type="matrix" values="0 0 0 0 0 0 0 0 0 0 0 0 0 0 0 0 0 0 127 0" result="hardAlpha"/>
<feOffset dx="1" dy="1"/>
<feGaussianBlur stdDeviation="2"/>
<feColorMatrix type="matrix" values="0 0 0 0 0 0 0 0 0 0 0 0 0 0 0 0 0 0 0.15 0"/>
<feBlend mode="normal" in2="BackgroundImageFix" result="effect1_dropShadow_91_7124"/>
<feBlend mode="normal" in="SourceGraphic" in2="effect1_dropShadow_91_7124" result="shape"/>
</filter>
</defs>
</svg>
