<svg width="129" height="52" viewBox="0 0 129 52" fill="none" xmlns="http://www.w3.org/2000/svg">
<path fill-rule="evenodd" clip-rule="evenodd" d="M0.271669 47.9911L0 48.2044V50.8782L0.271669 51.0694H20.8742L21.1459 50.8782V48.2044L20.8742 47.9911L18.3612 47.8489C16.9803 47.8252 16.2898 47.7067 16.2898 46.7825C16.2898 46.5693 16.3464 46.2849 16.4596 45.9294C16.5728 45.5503 17.8179 43.4175 20.195 39.5312L29.4997 24.3531L41.555 4.69626H42.4719V51.0694H48.761V0.253023C48.761 0.253023 35.567 0.347812 33.371 0.253023C31.175 0.158234 29.8732 0.11084 29.4657 0.11084L29.194 0.359661V2.13696L29.4657 2.38578C33.6766 2.59905 36.2235 2.88342 37.1064 3.23888C38.012 3.57064 38.4648 4.11568 38.4648 4.87399C38.4648 5.27685 38.3176 5.73894 38.0233 6.26028C37.9049 6.46476 36.3045 8.88888 33.9553 12.432C33.6957 12.5749 31.5396 12.7001 25.1193 12.5466C22.9233 12.4518 21.6216 12.4044 21.2141 12.4044L20.9424 12.6533V14.4306L21.2141 14.6794C25.4249 14.8927 27.9718 15.177 28.8547 15.5325C29.7603 15.8642 30.2131 16.4093 30.2131 17.1676C30.2131 17.414 30.158 17.877 30.048 18.3187C28.8013 20.1953 27.483 22.1785 26.151 24.1815L17.6064 24.075C15.4104 23.9802 14.1086 23.9328 13.7011 23.9328L13.4294 24.1816V25.9589L13.7011 26.2077C17.912 26.421 20.4589 26.7054 21.3418 27.0608C22.2474 27.3926 22.7001 27.9376 22.7001 28.6959C22.7001 28.8789 22.6698 29.1812 22.6091 29.5056C21.4919 31.1843 20.4021 32.8214 19.3754 34.363C18.9808 34.7456 18.6492 34.9722 18.3343 35.154C17.8792 35.4169 14.6302 35.411 12.0613 35.4063H12.0609C10.9243 35.4042 9.92085 35.4024 9.35145 35.4242C8.36241 35.3823 6.84275 35.3239 6.43524 35.3239L6.16357 35.5727V37.35L6.43524 37.5988C10.6461 37.8121 13.193 38.0964 14.0759 38.4519C14.9815 38.7837 15.4343 39.3287 15.4343 40.087C15.4343 40.1443 15.4313 40.2133 15.4253 40.291C14.0993 42.2794 13.1151 43.7531 12.6562 44.4365C11.4337 46.2138 10.4942 46.9366 9.83763 47.3157C9.3805 47.5797 6.84769 48.041 4.10181 48.1556C3.5776 48.1556 2.73575 48.107 1.9627 48.0623L1.96253 48.0623C1.22343 48.0196 0.547238 47.9806 0.271669 47.9911ZM63.6785 46.1124C63.7063 45.763 63.7202 45.4936 63.7202 45.3044C63.7202 44.1105 63.4768 43.0622 62.99 42.1595C62.517 41.2422 61.8494 40.5361 60.987 40.0411C60.1385 39.5315 59.1718 39.2767 58.0869 39.2767C56.988 39.2767 56.0005 39.5315 55.1242 40.0411C54.2479 40.5507 53.5594 41.2641 53.0586 42.1813C52.5718 43.084 52.3284 44.1032 52.3284 45.2389C52.3284 46.3891 52.5787 47.4228 53.0795 48.34C53.5941 49.2427 54.3174 49.9489 55.2494 50.4585C56.1813 50.9681 57.2593 51.2228 58.4833 51.2228C59.4431 51.2228 60.3054 51.0627 61.0705 50.7424C61.8355 50.4221 62.4684 49.9489 62.9691 49.3228L61.5712 47.6412C60.7784 48.4856 59.7699 48.9079 58.5459 48.9079C57.5861 48.9079 56.7794 48.6604 56.1256 48.1653C55.4858 47.6557 55.0894 46.9714 54.9364 46.1124H63.6785ZM55.9587 42.2469C56.5429 41.7227 57.2523 41.4606 58.0869 41.4606C58.9354 41.4606 59.6447 41.7227 60.215 42.2469C60.7853 42.771 61.1261 43.4553 61.2374 44.2998H54.9155C55.0407 43.4407 55.3884 42.7564 55.9587 42.2469ZM68.534 50.4585C69.452 50.9681 70.4882 51.2228 71.6427 51.2228C72.7277 51.2228 73.6805 50.9899 74.5011 50.524C75.3357 50.0435 75.9686 49.3665 76.3998 48.4929L74.3968 47.2699C74.0769 47.8086 73.6735 48.2163 73.1867 48.4929C72.7138 48.755 72.1921 48.886 71.6219 48.886C70.6343 48.886 69.8206 48.5584 69.1807 47.9033C68.5548 47.2335 68.2419 46.3454 68.2419 45.2389C68.2419 44.1323 68.5618 43.2515 69.2016 42.5963C69.8415 41.9265 70.6482 41.5917 71.6219 41.5917C72.1921 41.5917 72.7138 41.73 73.1867 42.0066C73.6735 42.2687 74.0769 42.6691 74.3968 43.2078L76.3998 41.9848C75.9825 41.1112 75.3565 40.4415 74.522 39.9756C73.7013 39.5097 72.7416 39.2767 71.6427 39.2767C70.4743 39.2767 69.4311 39.5315 68.5131 40.0411C67.609 40.5507 66.8996 41.2568 66.3849 42.1595C65.8703 43.0622 65.613 44.0886 65.613 45.2389C65.613 46.3891 65.8703 47.4228 66.3849 48.34C66.8996 49.2427 67.6159 49.9489 68.534 50.4585ZM88.965 45.3044C88.965 45.4936 88.9511 45.763 88.9233 46.1124H80.1812C80.3342 46.9714 80.7306 47.6557 81.3705 48.1653C82.0242 48.6604 82.831 48.9079 83.7907 48.9079C85.0148 48.9079 86.0232 48.4856 86.816 47.6412L88.2139 49.3228C87.7132 49.9489 87.0803 50.4221 86.3153 50.7424C85.5503 51.0627 84.6879 51.2228 83.7281 51.2228C82.5041 51.2228 81.4261 50.9681 80.4942 50.4585C79.5623 49.9489 78.839 49.2427 78.3243 48.34C77.8236 47.4228 77.5732 46.3891 77.5732 45.2389C77.5732 44.1032 77.8166 43.084 78.3035 42.1813C78.8042 41.2641 79.4927 40.5507 80.369 40.0411C81.2453 39.5315 82.2329 39.2767 83.3317 39.2767C84.4166 39.2767 85.3834 39.5315 86.2318 40.0411C87.0942 40.5361 87.7619 41.2422 88.2348 42.1595C88.7216 43.0622 88.965 44.1105 88.965 45.3044ZM83.3317 41.4606C82.4971 41.4606 81.7878 41.7227 81.2036 42.2469C80.6333 42.7564 80.2855 43.4407 80.1604 44.2998H86.4822C86.3709 43.4553 86.0302 42.771 85.4599 42.2469C84.8896 41.7227 84.1802 41.4606 83.3317 41.4606ZM94.4256 39.4077H91.8176V51.07H94.4256V46.4619H100.038V51.07H102.646V39.4077H100.038V44.1469H94.4256V39.4077ZM110.773 46.3963H108.749V51.07H106.141V39.4077H108.749V44.125H110.836L114.132 39.4077H116.928L112.88 45.0205L117.199 51.07H114.132L110.773 46.3963ZM126.743 40.5215C125.88 39.6916 124.628 39.2767 122.987 39.2767C122.069 39.2767 121.2 39.4005 120.379 39.648C119.558 39.8955 118.856 40.2522 118.272 40.7181L119.294 42.7055C119.711 42.3415 120.219 42.0576 120.817 41.8537C121.429 41.6499 122.048 41.548 122.674 41.548C123.592 41.548 124.281 41.7664 124.74 42.2032C125.213 42.64 125.449 43.266 125.449 44.0814V44.2561H122.57C120.97 44.2561 119.795 44.5764 119.044 45.217C118.306 45.8431 117.938 46.6803 117.938 47.7285C117.938 48.3983 118.105 49.0025 118.439 49.5412C118.786 50.0654 119.273 50.4803 119.899 50.7861C120.525 51.0773 121.255 51.2228 122.09 51.2228C122.924 51.2228 123.634 51.0918 124.218 50.8297C124.816 50.5531 125.275 50.16 125.595 49.6504V51.07H128.057V44.2342C128.057 42.5744 127.619 41.3369 126.743 40.5215ZM124.364 48.7768C123.863 49.0826 123.286 49.2355 122.632 49.2355C121.965 49.2355 121.443 49.0899 121.067 48.7987C120.692 48.5075 120.504 48.1144 120.504 47.6193C120.504 46.5856 121.255 46.0687 122.757 46.0687H125.449V47.4228C125.24 48.0052 124.879 48.4565 124.364 48.7768Z" fill="#202020"/>
<path fill-rule="evenodd" clip-rule="evenodd" d="M127.313 0.111816H85.5842L84.7148 1.02179V30.141L85.5842 31.051H127.313L128.182 30.141V1.02179L127.313 0.111816ZM120.839 25.3681V22.9355H111.55L117.087 17.1757C118.243 15.9828 119.028 14.9203 119.442 13.9883C119.856 13.0563 120.063 12.0684 120.063 11.0245C120.063 9.3469 119.502 8.02345 118.381 7.05417C117.259 6.06625 115.75 5.57229 113.853 5.57229C112.438 5.57229 111.153 5.83325 109.997 6.35517C108.859 6.87709 107.936 7.60405 107.229 8.53606L108.988 10.1857C110.075 8.76906 111.619 8.06074 113.62 8.06074C114.862 8.06074 115.811 8.34966 116.466 8.9275C117.139 9.4867 117.475 10.2789 117.475 11.3041C117.475 11.9938 117.32 12.6835 117.009 13.3732C116.699 14.0442 116.095 14.8457 115.198 15.7777L107.824 23.4668V25.3681H120.839ZM102.951 15.1906C101.743 14.1281 99.8458 13.5968 97.2583 13.5968H95.2401L95.7317 8.2285H103.779V5.79596H93.5582L92.6009 16.0294H96.7149C98.7159 16.0294 100.13 16.3369 100.958 16.9521C101.786 17.5485 102.2 18.4339 102.2 19.6083C102.2 20.6894 101.821 21.5468 101.062 22.1806C100.32 22.7957 99.2679 23.1033 97.9052 23.1033C96.8357 23.1033 95.8179 22.9169 94.852 22.5441C93.886 22.1526 93.0925 21.64 92.4715 21.0063L91.2812 23.2151C92.0575 23.9607 93.0407 24.5479 94.231 24.9766C95.4212 25.3867 96.6546 25.5917 97.931 25.5917C99.4318 25.5917 100.691 25.3308 101.709 24.8088C102.744 24.2683 103.511 23.5413 104.012 22.628C104.529 21.696 104.788 20.6521 104.788 19.4964C104.788 17.6697 104.175 16.2344 102.951 15.1906Z" fill="#F98C37"/>
</svg>
